<svg width="37" height="37" viewBox="0 0 37 37" fill="none" xmlns="http://www.w3.org/2000/svg">
<path d="M18.712 14.978C17.004 14.9732 15.6222 16.3671 15.6294 18.0896C15.6367 19.7782 17.0257 21.1455 18.7265 21.1407C20.4175 21.1359 21.7993 19.7444 21.7921 18.0557C21.7848 16.3599 20.4078 14.9853 18.712 14.9805V14.978Z" fill="#3D3D3D"/>
<path d="M26.3578 13.7216C26.2249 12.5838 25.7538 11.6344 24.744 11.016C24.128 10.6415 23.4443 10.4917 22.7341 10.4893C20.1613 10.4821 17.5861 10.4821 15.0133 10.4893C14.6533 10.4893 14.2885 10.5111 13.9358 10.5739C12.6941 10.7961 11.8051 11.4725 11.3534 12.6732C11.1528 13.2071 11.0973 13.7651 11.0973 14.3304C11.0973 16.8211 11.0949 19.3118 11.0997 21.8C11.0997 22.1116 11.1214 22.4257 11.1649 22.7349C11.4331 24.5878 12.7255 25.5783 14.3997 25.6653C15.8298 25.7377 17.2648 25.6798 18.6973 25.6798C18.6973 25.687 18.6973 25.6918 18.6973 25.6991C19.9221 25.6991 21.1469 25.7039 22.3693 25.6967C22.6954 25.6967 23.024 25.6846 23.3453 25.6339C24.6232 25.4309 25.5678 24.7738 26.0896 23.5635C26.3239 23.0176 26.394 22.4402 26.394 21.8532C26.394 19.4954 26.394 17.1376 26.394 14.7797C26.394 14.4246 26.3988 14.0671 26.3578 13.7168V13.7216ZM18.6659 22.8847C16.0062 22.8799 13.8778 20.7177 13.8803 18.0314C13.8851 15.3885 16.0569 13.2312 18.7094 13.2336C21.3595 13.2361 23.5361 15.4151 23.5337 18.0628C23.5313 20.7419 21.3643 22.8895 18.6683 22.8823L18.6659 22.8847ZM23.7294 14.2169C23.1206 14.2217 22.623 13.7313 22.6206 13.1249C22.6181 12.521 23.111 12.0306 23.7246 12.0306C24.3382 12.0306 24.8189 12.5137 24.8165 13.1298C24.8165 13.7313 24.3333 14.212 23.7294 14.2169Z" fill="#3D3D3D"/>
<path d="M18.7119 0.168945C8.80962 0.168945 0.781982 8.19659 0.781982 18.0989C0.781982 28.0012 8.80962 36.0288 18.7119 36.0288C28.6142 36.0288 36.6418 28.0012 36.6418 18.0989C36.6418 8.19659 28.6118 0.168945 18.7119 0.168945ZM28.0658 21.8796C28.0658 22.8773 27.9064 23.846 27.4329 24.7374C26.684 26.1507 25.4882 26.972 23.9445 27.3006C23.5193 27.39 23.0772 27.4359 22.6424 27.4383C19.9077 27.4479 17.1731 27.489 14.4432 27.4214C11.8801 27.3586 9.86532 25.6264 9.45947 23.0875C9.39183 22.6647 9.36525 22.2299 9.36042 21.8023C9.34834 20.5654 9.35559 19.3261 9.35559 18.0868C9.36042 18.0868 9.36767 18.0868 9.3725 18.0868C9.3725 16.6397 9.32176 15.1903 9.38458 13.7481C9.48845 11.3323 10.9766 9.36341 13.5518 8.873C13.9915 8.78845 14.4481 8.7498 14.8974 8.74738C17.4436 8.7353 19.9899 8.74014 22.5337 8.74255C23.8092 8.74255 25.0002 9.03486 26.0269 9.82965C27.1454 10.6969 27.788 11.8492 27.9813 13.248C28.0417 13.6877 28.0586 14.1346 28.061 14.5791C28.0682 17.0142 28.0658 19.4493 28.0634 21.882L28.0658 21.8796Z" fill="#3D3D3D"/>
</svg>
