<svg width="121" height="107" viewBox="0 0 121 107" fill="none" xmlns="http://www.w3.org/2000/svg">
<path d="M24.2006 106.99C23.1126 106.99 22.0246 106.913 20.9521 106.765C19.5843 106.571 19.1569 105.848 19.6154 104.542C19.8796 103.788 20.2527 103.058 20.6568 102.374C22.8095 98.7058 23.7809 94.6801 23.8897 90.499C24.0063 85.8283 23.8587 81.1576 23.8198 76.4869C23.7887 72.9043 23.7265 69.3138 24.8223 65.8322C25.7782 62.8013 27.6512 60.6641 30.7365 59.646C34.7699 58.3171 38.951 57.7264 43.1321 57.1203C46.5516 56.6229 49.9322 55.9079 53.3361 55.2706C54.1366 55.123 54.9837 54.9287 55.0536 53.8873C55.108 53.1412 54.4086 52.4729 53.2584 52.2086C49.5358 51.3538 45.79 50.5922 42.0752 49.6907C38.3293 48.7814 34.5756 47.8643 30.8841 46.7452C28.5682 46.0458 26.5243 44.7402 25.5762 42.3388C25.1254 41.1964 24.8146 39.9529 24.6824 38.7328C24.1851 34.2331 24.3638 29.7333 24.7602 25.2258C25.141 20.9748 25.6073 16.6849 24.4104 12.4961C23.9441 10.8563 23.066 9.33305 22.3277 7.77874C21.7293 6.51198 20.9754 5.30739 20.4625 4.00177C19.9107 2.61066 20.3304 1.81019 21.7914 1.5071C23.4001 1.17293 25.0477 0.947553 26.6875 0.877609C37.1247 0.380231 47.5463 -0.22595 57.9913 0.0849121C67.9699 0.372459 77.8242 1.53042 87.29 4.92658C99.5302 9.30973 109.05 16.9569 115.205 28.5365C118.228 34.2175 120.094 40.2871 120.513 46.7142C121.858 67.4098 114.327 84.1963 97.8437 96.8017C90.6318 102.32 82.3162 105.483 73.2624 106.291C68.2186 106.742 63.1283 106.679 58.0534 106.765C53.9812 106.835 31.4126 107.021 24.2006 106.998V106.99ZM68.3352 6.81507C68.1331 6.81507 67.9311 6.82284 67.729 6.81507C58.4498 6.26329 50.9891 13.6618 51.3699 22.9488C51.5875 28.2568 51.6031 33.5803 51.8207 38.8882C51.8751 40.2638 52.1626 41.7015 52.6678 42.9838C53.7014 45.6261 55.9085 47.1805 58.4342 48.1752C61.2009 49.2632 64.0531 50.1181 66.8741 51.074C67.6358 51.3305 68.4207 51.5247 69.1512 51.8512C70.6433 52.5117 70.8221 53.8717 69.5242 54.8665C68.9958 55.2706 68.3352 55.5193 67.6979 55.7602C65.926 56.4208 64.123 56.9959 62.3666 57.6876C58.0534 59.4051 54.0433 61.6588 51.0435 65.2881C44.803 72.8343 42.9456 81.5618 44.9429 91.0119C46.1941 96.9416 50.0021 100.827 55.9707 102.265C61.0222 103.485 66.0659 103.12 70.9697 101.465C74.3193 100.338 76.7829 98.0918 77.8087 94.6568C78.5081 92.3253 78.9045 89.8851 79.3008 87.4759C79.9537 83.5046 80.2956 79.479 81.1272 75.5544C82.3784 69.6558 85.0362 64.2934 88.4713 59.3818C91.8597 54.5323 95.6055 49.9394 99.1027 45.1676C101.007 42.5797 102.919 39.9607 104.473 37.1629C107.139 32.3834 106.913 27.534 103.711 23.0498C99.0716 16.545 93.0098 11.8355 85.3549 9.32527C79.8293 7.51451 74.1017 7.00936 68.3274 6.82284L68.3352 6.81507Z" fill="#FF4527"/>
<path d="M14.6649 32.7948C14.7038 32.9814 14.7582 33.1601 14.7737 33.3466C15.1001 36.3076 15.5353 39.2608 15.7063 42.2295C15.9705 46.8691 19.1491 51.5787 25.0788 52.7677C26.1823 52.9853 27.2859 53.2262 28.3817 53.4749C28.6148 53.5293 28.8324 53.6692 29.0578 53.778C28.8091 53.879 28.576 54.0189 28.3195 54.0811C27.3014 54.322 26.2834 54.5785 25.2575 54.7572C19.4755 55.752 15.955 60.4538 15.6985 65.3654C15.5431 68.4196 15.0923 71.4505 14.7737 74.4969C14.7504 74.7301 14.6727 74.9555 14.6183 75.1886C14.5095 74.9632 14.323 74.7456 14.2996 74.5047C13.9577 71.3805 13.5303 68.2642 13.336 65.14C13.0562 60.547 9.76106 55.9152 4.05675 54.8038C2.83661 54.5629 1.61648 54.2987 0.396349 54.0345C0.256461 54.0034 0.132116 53.8868 0 53.8091C0.139888 53.7158 0.264232 53.5682 0.411892 53.5293C2.05169 53.1407 3.72257 52.8454 5.34682 52.3869C9.81546 51.1124 12.8852 47.2655 13.2971 42.6336C13.5691 39.5483 13.9421 36.4708 14.2841 33.3855C14.3074 33.1756 14.4162 32.9814 14.4862 32.7793C14.5406 32.7871 14.595 32.7948 14.6494 32.8026L14.6649 32.7948Z" fill="#FF4527"/>
</svg>
