<svg width="36" height="36" viewBox="0 0 36 36" fill="none" xmlns="http://www.w3.org/2000/svg">
<path d="M0.170317 19.3845C0.170317 18.5221 0.170317 17.6596 0.170317 16.7972C0.194475 16.6957 0.223459 16.5967 0.240369 16.4952C0.361158 15.6908 0.431221 14.8766 0.607573 14.0843C1.37821 10.6273 3.05475 7.65829 5.59615 5.20386C8.49026 2.4088 11.9424 0.737079 15.9599 0.270833C17.849 0.0509971 19.7285 0.118639 21.591 0.47859C24.2267 0.98832 26.6135 2.07059 28.7659 3.67225C31.7784 5.91651 33.8801 8.83236 35.0832 12.386C36.0857 15.3501 36.2379 18.3844 35.6775 21.45C35.1629 24.2692 33.9719 26.8009 32.2205 29.0669C30.5608 31.2146 28.4978 32.8742 26.082 34.0966C24.2605 35.017 22.3351 35.6016 20.301 35.8287C19.6391 35.9906 16.5493 35.9712 15.8246 35.8166C14.8921 35.6427 13.962 35.4615 13.0464 35.2828C13.0464 35.1813 13.0392 35.1523 13.0464 35.1354C13.0996 35.0339 13.1551 34.93 13.2155 34.831C13.8992 33.7173 14.4862 32.5577 14.8293 31.287C15.0636 30.4246 15.2738 29.5549 15.4936 28.6877C15.6772 27.9702 15.8632 27.2551 16.071 26.4482C16.1338 26.5521 16.1555 26.5932 16.1797 26.6318C16.8923 27.7069 17.9456 28.2891 19.1583 28.5403C21.2625 28.9776 23.2314 28.521 25.0335 27.3856C27.1014 26.0835 28.3842 24.1653 29.2032 21.9042C29.7588 20.3701 30.0076 18.7781 30.0873 17.1547C30.1429 15.9952 30.068 14.8452 29.7081 13.7364C28.3287 9.50395 25.2703 7.22345 21.0257 6.3731C19.3154 6.03006 17.5929 6.12669 15.885 6.43832C12.4473 7.06643 9.65226 8.72607 7.73413 11.6878C5.72661 14.7897 5.40289 18.0776 6.86927 21.4959C7.38383 22.6965 8.2656 23.5735 9.459 24.1218C10.0847 24.4093 10.3504 24.2885 10.534 23.629C10.6258 23.3053 10.6886 22.9719 10.8022 22.6555C11.0051 22.0805 10.8891 21.5998 10.4978 21.1359C10.0412 20.5948 9.75854 19.9522 9.61118 19.2613C9.28022 17.7152 9.42276 16.1957 9.98322 14.7317C10.7853 12.6372 12.1816 11.0525 14.2181 10.0644C15.3994 9.49187 16.658 9.25512 17.9674 9.22613C19.3202 9.19714 20.6465 9.3276 21.8882 9.89289C24.0213 10.864 25.263 12.5309 25.623 14.8477C25.7776 15.8454 25.722 16.8455 25.6302 17.8456C25.4732 19.5681 25.0287 21.206 24.1832 22.7231C23.6251 23.7232 22.9366 24.6147 21.893 25.1534C20.8832 25.6752 19.8203 25.8008 18.7573 25.3563C17.7041 24.9166 16.7305 23.7281 17.2547 21.9259C17.5881 20.7784 17.9215 19.6285 18.2549 18.4786C18.5375 17.505 18.8177 16.5339 18.7694 15.5023C18.6897 13.8234 17.2982 12.7942 15.67 13.2098C14.7375 13.4489 14.0949 14.0625 13.6528 14.8718C12.7106 16.5919 12.742 18.3892 13.3484 20.2059C13.4257 20.4378 13.5103 20.6431 13.445 20.904C12.8411 23.3995 12.2685 25.9023 11.6501 28.3929C11.1742 30.3207 10.7708 32.2509 10.8843 34.2512C10.8867 34.3019 10.865 34.3575 10.8408 34.4759C10.2127 34.1425 9.60877 33.8478 9.0314 33.512C5.68554 31.5576 3.26251 28.7698 1.65843 25.2597C0.924034 23.6532 0.469874 21.9621 0.291106 20.1986C0.262117 19.9232 0.204129 19.6526 0.160645 19.3797L0.170317 19.3845Z" fill="#3D3D3D"/>
</svg>
