<svg width="36" height="36" viewBox="0 0 36 36" fill="none" xmlns="http://www.w3.org/2000/svg">
<path d="M17.9686 0C8.04455 0 0 8.04455 0 17.9686C0 27.8926 8.04455 35.9372 17.9686 35.9372C27.8926 35.9372 35.9372 27.8926 35.9372 17.9686C35.9372 8.04455 27.8926 0 17.9686 0ZM26.1001 15.9514C24.496 16.1519 23.1649 15.4755 21.7759 14.7266C21.7759 15.0576 21.7807 15.3112 21.7759 15.5649C21.7396 17.5796 21.8048 19.6017 21.6357 21.6067C21.4231 24.1409 20.0703 25.9817 17.7198 27.006C15.6084 27.924 13.2457 27.4215 11.6368 25.7764C9.56891 23.6626 8.6799 19.2006 12.3181 16.5119C13.5115 15.6301 14.8909 15.3281 16.4007 15.2726V18.4227C15.804 18.6088 15.2194 18.7634 14.6517 18.9711C13.9125 19.2417 13.3713 19.7442 13.0839 20.4858C12.5041 21.9739 13.4849 23.764 15.0866 24.153C16.5433 24.5057 17.7584 23.8558 18.2778 22.4499C18.5339 21.7565 18.5943 21.039 18.5919 20.3071C18.5822 16.6496 18.5774 12.9921 18.5701 9.337C18.5701 9.08334 18.5701 8.82968 18.5701 8.48181H20.4399C20.5583 8.48181 20.6743 8.48181 20.7926 8.48181C21.3708 8.48181 21.7308 8.76204 21.8725 9.3225C22.4112 11.4677 23.6118 12.5645 25.7788 12.8979C25.8682 12.9124 25.9576 12.9365 26.1001 12.9655V15.9538V15.9514Z" fill="#3D3D3D"/>
</svg>
