<svg width="41" height="28" viewBox="0 0 41 28" fill="none" xmlns="http://www.w3.org/2000/svg">
<path d="M19.4526 27.8811C17.0726 27.8398 14.6925 27.8025 12.3124 27.7674C10.0254 27.7343 7.74454 27.6619 5.47405 27.3249C3.68951 27.0602 2.41779 26.1834 1.71266 24.5312C1.46245 23.9481 1.27634 23.3319 1.11092 22.7177C0.670468 21.0821 0.624975 19.3885 0.593958 17.7198C0.529855 14.3947 0.438866 11.0655 0.751109 7.74039C0.866908 6.49762 1.01993 5.2776 1.44177 4.10307C1.70852 3.36485 2.01456 2.65972 2.54806 2.04557C3.613 0.817275 5.04601 0.509168 6.53692 0.399572C8.54272 0.252756 10.5547 0.151432 12.5667 0.118347C16.0076 0.0604472 19.4506 0.0521758 22.8914 0.0583793C25.2157 0.062515 27.542 0.101804 29.8663 0.174178C31.7294 0.232078 33.5925 0.281706 35.4412 0.587746C37.1719 0.875175 38.3278 1.84086 39.0144 3.4C39.2708 3.98107 39.4507 4.59935 39.6161 5.2135C40.0566 6.84916 40.1 8.54271 40.1331 10.2115C40.1992 13.5365 40.2778 16.8658 39.9759 20.1908C39.8353 21.7355 39.5499 23.2161 38.9606 24.647C38.5905 25.5465 37.9494 26.1979 37.1575 26.7273C36.2187 27.3538 35.1248 27.42 34.0598 27.5275C32.9328 27.6392 31.7955 27.6743 30.6624 27.7074C28.1727 27.7757 25.6851 27.8191 23.1954 27.8791C22.9824 27.8832 19.5726 27.8811 19.4526 27.8791V27.8811ZM16.3426 18.9894C19.8414 17.1656 23.2802 15.3728 26.8017 13.5365C23.2492 11.6858 19.8124 9.89715 16.3426 8.08986V18.9894Z" fill="#3D3D3D"/>
</svg>
